<?xml version="1.0" standalone="no"?>
<!DOCTYPE svg PUBLIC "-//W3C//DTD SVG 20010904//EN"
 "http://www.w3.org/TR/2001/REC-SVG-20010904/DTD/svg10.dtd">
<svg version="1.0" xmlns="http://www.w3.org/2000/svg"
 width="460.000000pt" height="460.000000pt" viewBox="0 0 460.000000 460.000000"
 preserveAspectRatio="xMidYMid meet">
<metadata>
Created by potrace 1.14, written by Peter Selinger 2001-2017
</metadata>
<g transform="translate(0.000000,460.000000) scale(0.100000,-0.100000)"
fill="#000000" stroke="none">
<path d="M2580 4484 c0 -10 7 -14 22 -12 32 5 35 28 4 28 -17 0 -26 -5 -26
-16z"/>
<path d="M2468 4463 c-19 -3 -28 -10 -28 -23 0 -13 -11 -19 -44 -24 -32 -5
-45 -12 -49 -26 -4 -16 -14 -20 -47 -20 -33 0 -43 -4 -47 -19 -5 -20 -41 -31
-104 -31 -32 0 -39 -4 -39 -19 0 -16 -8 -20 -42 -23 -36 -2 -44 -7 -46 -25 -2
-15 -10 -23 -23 -23 -12 0 -19 -7 -19 -20 0 -17 -7 -20 -45 -20 l-45 0 0 44
c0 36 -4 46 -20 51 -25 8 -40 -1 -40 -24 0 -11 -9 -21 -21 -24 -16 -4 -20 -11
-16 -26 4 -16 -1 -23 -19 -27 -15 -4 -24 -13 -24 -25 0 -14 -7 -19 -25 -19
-20 0 -25 -5 -25 -25 0 -23 -4 -25 -45 -25 -39 0 -45 -3 -45 -21 0 -12 -8 -23
-20 -26 -13 -4 -20 -14 -21 -32 -2 -52 -4 -56 -26 -59 -17 -3 -23 -10 -23 -28
0 -17 -6 -24 -19 -24 -15 0 -21 -10 -26 -40 -5 -31 -11 -40 -27 -40 -11 0 -22
-8 -25 -19 -3 -11 -13 -21 -24 -24 -11 -3 -19 -14 -19 -27 0 -13 -8 -24 -20
-27 -28 -7 -26 -41 2 -45 34 -5 34 -34 0 -46 -16 -5 -30 -17 -31 -26 -1 -9 -2
-25 -3 -35 -2 -15 -13 -22 -40 -26 -29 -5 -38 -12 -38 -26 0 -10 -4 -20 -10
-20 -5 -1 -14 -3 -20 -4 -5 -1 -23 -3 -40 -4 -28 -1 -30 -3 -30 -41 0 -38 -1
-40 -32 -40 -69 0 -108 -12 -108 -31 0 -13 -8 -19 -25 -20 -14 -1 -29 -3 -35
-4 -5 -1 -14 -3 -20 -4 -5 0 -10 -8 -10 -16 0 -9 -11 -20 -25 -25 -14 -5 -25
-16 -25 -25 0 -8 -9 -15 -19 -15 -11 0 -26 -7 -35 -15 -17 -17 -30 -20 -21 -5
4 6 -7 10 -24 10 -21 0 -31 -5 -31 -15 0 -8 9 -15 20 -15 16 0 20 -7 20 -30 0
-23 -5 -30 -19 -30 -13 0 -21 -8 -23 -22 -2 -15 -11 -24 -25 -26 -15 -2 -23
-10 -23 -23 0 -14 -7 -19 -25 -19 -18 0 -25 -5 -25 -20 0 -13 -7 -20 -20 -20
-15 0 -20 -7 -20 -25 0 -16 -6 -25 -15 -25 -9 0 -20 -11 -25 -25 -6 -16 -17
-25 -31 -25 -12 0 -23 -8 -26 -20 -3 -11 -11 -20 -19 -20 -8 0 -15 -18 -20
-46 -5 -32 -12 -48 -24 -51 -22 -6 -30 -32 -30 -103 0 -90 10 -130 31 -130 14
0 19 -7 19 -25 0 -18 5 -25 20 -25 11 0 20 -7 20 -15 0 -8 -9 -15 -20 -15 -15
0 -20 -7 -20 -25 0 -20 -5 -25 -25 -25 -18 0 -25 5 -25 20 0 13 -7 20 -20 20
-17 0 -20 -7 -20 -45 0 -37 -3 -45 -19 -45 -19 0 -31 -25 -31 -67 0 -16 -6
-23 -20 -23 -15 0 -20 -7 -20 -25 0 -20 -5 -25 -25 -25 -18 0 -25 -5 -25 -20
0 -13 -7 -20 -20 -20 -19 0 -21 -5 -18 -67 3 -65 23 -99 30 -51 2 17 11 24 31
26 25 3 27 7 27 48 0 37 3 44 19 44 17 0 20 -8 23 -52 3 -46 6 -53 25 -56 15
-2 23 2 23 11 0 9 8 14 18 13 11 -2 17 -12 17 -27 0 -21 -4 -24 -30 -21 -16 2
-38 10 -47 19 -10 8 -24 13 -33 10 -22 -9 -19 -37 5 -37 15 0 20 -7 20 -25 0
-21 5 -25 29 -25 62 0 121 13 121 26 0 8 7 14 15 14 11 0 15 -11 15 -39 0 -30
-4 -40 -20 -44 -12 -3 -20 -14 -20 -26 0 -16 -6 -21 -25 -21 -20 0 -25 -5 -25
-25 0 -18 -5 -25 -20 -25 -11 0 -20 -7 -20 -15 0 -19 38 -14 50 5 5 8 12 11
16 7 4 -4 16 1 27 10 10 10 22 17 25 15 4 -2 7 1 9 8 1 6 0 7 -4 0 -2 -5 -9
-8 -14 -4 -19 12 -7 20 32 22 37 3 40 1 37 -20 -2 -13 -10 -23 -18 -23 -8 0
-16 -10 -18 -22 -3 -18 2 -23 17 -23 18 0 21 -6 21 -40 0 -34 4 -42 25 -50 21
-8 25 -16 25 -51 0 -32 4 -42 20 -46 13 -4 20 -14 21 -32 1 -14 2 -30 4 -36 1
-5 3 -22 3 -37 2 -21 7 -28 22 -28 17 0 20 -7 20 -45 0 -38 3 -45 20 -45 19 0
24 -18 23 -76 0 -7 17 -15 39 -18 28 -5 42 -12 45 -26 3 -11 16 -23 29 -26 15
-4 24 -14 24 -25 0 -12 7 -19 19 -19 14 0 21 -12 29 -54 6 -30 8 -70 5 -90 -5
-32 -3 -36 15 -36 14 0 22 -7 24 -22 2 -15 11 -24 26 -26 19 -3 22 -9 22 -50
0 -26 3 -77 7 -115 l6 -67 -32 0 c-28 0 -31 -3 -26 -20 5 -16 2 -20 -19 -20
-19 0 -26 5 -26 20 0 17 -7 20 -45 20 -43 0 -45 -1 -45 -29 0 -42 -10 -61 -31
-61 -16 0 -19 -8 -19 -45 0 -37 -3 -45 -19 -45 -15 0 -20 -10 -25 -45 -6 -36
-11 -45 -27 -45 -16 0 -19 -7 -19 -50 0 -43 -3 -50 -20 -50 -15 0 -20 -7 -21
-30 -1 -16 -3 -34 -4 -40 -1 -5 -3 -21 -4 -35 -1 -18 -7 -25 -21 -25 -17 0
-20 -7 -20 -46 0 -37 -4 -47 -19 -51 -21 -5 -31 -46 -31 -130 l0 -53 204 0
204 0 6 31 c3 17 6 52 6 76 0 36 3 44 15 40 8 -4 17 -2 20 3 4 6 -2 10 -12 11
-29 1 15 16 71 24 29 5 46 12 46 21 0 8 9 14 20 14 17 0 20 -7 20 -40 0 -36
-3 -40 -24 -40 -18 0 -25 -6 -28 -22 -2 -15 -9 -22 -21 -22 -14 2 -17 -7 -17
-47 l0 -49 45 0 45 0 0 45 c0 41 2 45 25 45 20 0 25 5 25 25 0 24 3 25 43 23
37 -3 42 0 45 19 3 17 10 23 28 23 17 0 24 5 24 20 0 15 9 21 40 26 31 5 40
11 40 26 0 11 8 22 19 25 12 3 24 21 32 49 8 24 19 44 25 44 7 0 14 10 16 23
2 14 11 23 26 25 14 2 22 10 22 22 0 15 -9 19 -42 22 -43 3 -43 3 -46 46 -3
34 -7 42 -23 42 -14 0 -19 7 -19 25 0 18 5 25 19 25 11 0 23 -5 26 -10 4 -6
11 -7 17 -4 7 5 9 1 5 -9 -5 -13 2 -18 33 -23 29 -5 40 -11 40 -24 0 -15 12
-18 78 -22 115 -7 202 1 202 18 0 22 27 16 33 -7 6 -21 10 -22 74 -16 37 4 98
7 136 7 60 0 67 2 67 20 0 19 7 20 159 20 151 0 160 -1 166 -20 7 -22 49 -28
61 -8 4 7 3 8 -4 4 -7 -4 -12 -2 -12 3 0 6 12 11 28 11 22 0 24 -2 12 -11 -11
-8 -9 -9 10 -4 14 4 29 11 34 16 6 5 41 9 78 9 60 0 68 2 68 19 0 15 11 19 68
24 95 10 245 8 260 -2 31 -19 5 -41 -51 -41 -31 0 -39 -4 -47 -25 -6 -16 -15
-23 -24 -19 -11 4 -16 -6 -21 -40 -7 -43 -8 -45 -49 -52 -38 -6 -55 -18 -56
-36 0 -5 27 -8 60 -8 52 0 60 -2 58 -17 -4 -23 -17 -33 -45 -33 -16 0 -23 -6
-23 -20 0 -16 -7 -20 -34 -20 -63 0 -96 -11 -96 -32 0 -11 -9 -22 -20 -25 -11
-3 -20 -11 -20 -18 0 -14 44 -25 100 -25 l38 0 -5 -37 c-8 -64 30 -127 44 -73
3 13 14 20 29 20 17 0 24 6 24 20 0 17 7 20 45 20 l45 0 0 -39 c0 -36 -3 -40
-27 -43 -20 -2 -29 -9 -31 -25 l-3 -23 810 0 811 0 0 95 0 95 -90 0 c-73 0
-90 3 -90 15 0 9 10 15 23 16 84 3 117 12 117 32 0 13 -50 32 -76 28 -7 -1
-14 8 -17 19 -7 27 -47 27 -47 0 0 -15 -7 -20 -24 -20 -14 0 -28 -5 -31 -11
-4 -6 -13 -8 -20 -5 -7 2 -15 -4 -18 -15 -4 -15 -14 -19 -52 -19 -42 0 -46 2
-43 22 2 15 10 23 23 23 13 0 21 8 23 21 2 17 12 23 47 28 36 6 42 10 38 26
-3 11 -14 20 -24 20 -12 0 -19 7 -19 20 0 23 -37 28 -73 8 -21 -11 -21 -11 -2
-19 15 -6 11 -8 -17 -8 -30 -1 -38 -5 -38 -20 0 -19 -39 -31 -107 -31 -35 0
-46 10 -37 34 4 11 19 16 51 16 36 0 46 4 50 19 3 13 17 22 44 26 29 5 39 11
39 26 0 17 -8 19 -69 19 -61 0 -70 -2 -76 -21 -6 -19 -30 -22 -30 -3 0 5 -4
14 -8 21 -4 6 -5 30 -1 52 l6 40 -78 3 c-62 2 -78 6 -76 17 3 12 0 12 -12 1
-13 -10 -16 -10 -16 4 0 10 8 16 21 16 16 0 20 5 17 27 -2 15 -10 27 -19 28
-44 7 -304 -11 -300 -20 5 -12 -56 -24 -131 -24 -52 -1 -58 1 -58 19 0 19 10
24 38 21 7 -1 12 9 12 24 0 20 5 25 25 25 18 0 25 5 25 19 0 16 9 21 45 27 35
5 45 10 45 25 0 14 7 19 25 19 20 0 25 5 25 25 0 18 5 25 20 25 13 0 20 7 20
20 0 13 -7 20 -19 20 -16 0 -19 11 -24 87 -6 97 -4 220 5 228 3 3 32 9 64 13
42 5 59 11 59 22 0 12 16 16 73 18 l72 3 1 62 c0 34 3 56 6 50 7 -18 33 -16
33 2 0 8 -9 15 -20 15 -16 0 -20 7 -20 30 0 24 4 30 21 30 14 0 19 5 17 17 -4
20 -5 20 -78 22 -46 1 -50 3 -50 26 0 18 5 25 20 25 17 0 20 7 20 45 0 38 -3
45 -20 45 -18 0 -20 7 -20 74 0 98 -4 106 -50 106 l-37 0 -6 -67 c-4 -38 -7
-89 -7 -115 0 -45 -13 -71 -23 -46 -3 7 -6 1 -6 -14 -1 -19 3 -26 13 -22 16 6
26 -43 26 -133 0 -56 2 -63 20 -63 13 0 20 -7 20 -20 0 -14 -7 -20 -21 -20
-12 0 -23 8 -26 20 -4 16 -14 20 -49 20 -37 0 -44 -3 -44 -20 0 -16 -7 -20
-34 -20 -18 0 -47 -3 -64 -6 -26 -5 -32 -12 -37 -46 -7 -40 -8 -40 -44 -34
-20 3 -48 6 -63 6 -18 0 -28 5 -28 15 0 9 -10 16 -22 16 -13 1 -34 2 -48 3
-19 1 -26 -5 -28 -21 -2 -15 -10 -23 -23 -23 -14 0 -19 -7 -19 -25 l0 -25
-121 0 c-77 0 -118 -4 -114 -10 3 -5 -2 -10 -12 -10 -15 0 -16 -2 -3 -10 11
-7 5 -10 -23 -10 -40 0 -78 24 -54 33 6 3 2 6 -10 6 -27 1 -32 35 -8 45 8 3
15 15 15 27 0 12 8 23 20 26 23 6 26 19 8 26 -8 3 -6 6 4 6 19 1 41 34 31 45
-6 6 70 11 110 8 11 -1 17 5 17 18 0 13 7 20 18 20 27 0 72 23 72 38 0 6 5 13
10 13 6 1 15 3 20 4 6 1 24 3 40 4 22 1 30 6 30 20 0 15 10 20 45 25 36 6 45
11 45 27 0 12 7 19 20 19 17 0 19 8 22 67 3 62 5 68 26 71 13 2 22 10 22 22 0
13 11 19 45 24 36 6 45 11 45 27 0 13 7 19 24 19 18 0 25 6 28 23 2 12 10 22
18 22 8 0 17 11 18 24 2 13 12 25 22 28 10 3 20 13 23 24 4 13 14 19 32 19
l28 0 -5 112 c-5 92 -9 114 -24 125 -9 7 -16 14 -13 17 16 14 50 25 63 20 11
-4 19 2 25 17 8 21 10 21 10 5 1 -20 1 -20 16 0 8 10 15 29 15 42 0 15 6 22
20 22 18 0 20 -7 20 -65 0 -62 1 -65 24 -65 18 0 25 6 28 23 2 15 10 22 27 23
13 1 26 6 30 11 3 6 13 13 21 16 10 4 8 6 -7 6 -13 1 -24 6 -24 11 -1 6 -2 16
-3 23 0 7 -19 13 -43 15 l-43 3 0 45 c0 37 3 44 20 44 13 0 20 -7 20 -20 0
-18 7 -20 70 -20 63 0 70 -2 70 -20 0 -15 7 -20 25 -20 18 0 25 5 25 20 0 17
7 20 39 20 37 0 39 2 44 37 7 42 -6 64 -25 44 -7 -6 -13 -17 -13 -24 0 -6 -8
-13 -18 -15 -21 -4 -49 16 -41 30 3 5 -3 12 -14 15 -12 3 -22 15 -24 27 -2 17
-11 22 -45 24 l-43 3 2 45 c3 50 5 53 17 22 l8 -22 5 22 c4 14 2 20 -4 16 -7
-5 -9 2 -6 19 4 19 0 27 -14 30 -11 3 -18 14 -18 30 0 14 -6 28 -12 30 -10 4
-10 6 -1 6 7 1 10 8 6 17 -11 29 -32 -25 -33 -83 0 -43 -3 -51 -17 -49 -11 2
-19 13 -21 27 -11 100 -13 109 -33 109 -14 0 -19 7 -19 25 0 13 -8 29 -17 34
-15 9 -15 12 -5 19 11 7 9 10 -7 15 -15 3 -21 13 -21 31 0 19 -5 26 -20 26
-17 0 -20 7 -20 45 0 38 3 45 19 45 13 0 21 -8 23 -22 2 -15 11 -24 26 -26 14
-2 22 -10 22 -23 0 -12 7 -19 20 -19 13 0 20 -7 20 -20 0 -13 10 -24 25 -30
15 -6 25 -17 25 -30 0 -15 7 -20 26 -20 25 0 26 2 20 38 -3 20 -6 43 -6 50 0
6 -9 12 -20 12 -14 0 -20 7 -20 21 0 12 -8 23 -19 26 -13 3 -22 17 -26 43 -5
30 -12 40 -28 42 -14 2 -23 11 -25 26 -2 14 -10 22 -22 22 -10 0 -22 5 -25 11
-4 6 -13 8 -21 5 -10 -4 -14 3 -14 23 0 57 -12 91 -31 91 -11 0 -20 5 -20 10
-1 6 -2 16 -3 22 0 7 -8 14 -16 15 -8 1 -36 5 -62 8 -42 5 -48 9 -48 31 0 13
6 24 13 24 9 0 14 14 15 40 2 34 -1 40 -18 40 -15 0 -20 -7 -20 -26 0 -24 -3
-26 -31 -20 -17 3 -38 6 -45 6 -8 0 -14 10 -14 25 0 18 -5 25 -20 25 -11 0
-20 7 -20 15 0 8 5 15 10 15 6 0 10 -6 10 -12 0 -23 20 16 20 40 0 20 -5 22
-45 22 -41 0 -45 2 -45 25 0 20 -5 25 -25 25 -20 0 -25 -5 -25 -25 0 -18 -5
-25 -20 -25 -13 0 -20 -7 -20 -19 0 -15 10 -21 40 -26 37 -6 40 -10 46 -46 5
-29 11 -39 25 -39 14 0 19 -7 19 -30 0 -17 -5 -30 -12 -30 -10 0 -10 -2 0 -9
8 -4 13 -12 13 -17 -1 -5 10 -10 24 -12 14 -2 25 -10 25 -18 0 -8 11 -19 25
-24 15 -6 25 -17 25 -30 0 -14 7 -20 21 -20 18 0 20 -5 17 -42 -2 -31 -8 -44
-20 -46 -13 -2 -18 3 -18 17 0 14 -8 23 -25 27 -16 4 -25 13 -25 25 0 12 -7
19 -20 19 -11 0 -21 5 -21 10 -1 6 -2 16 -3 23 0 6 -12 14 -25 15 -13 2 -25
12 -28 22 -3 12 -18 21 -43 25 -33 6 -39 11 -44 39 -3 18 -3 46 0 63 5 27 3
32 -17 35 -28 4 -41 46 -32 100 5 34 3 38 -15 38 -16 0 -22 9 -27 39 -4 27
-13 41 -26 44 -15 4 -19 14 -19 52 0 38 -4 48 -19 52 -20 5 -31 41 -31 99 0
26 -4 33 -22 36 -15 2 -23 10 -23 23 0 13 -8 21 -22 23 -18 3 -23 10 -23 32 0
37 -24 60 -61 60 -24 0 -29 4 -29 25 0 20 -5 25 -25 25 -18 0 -25 5 -25 20 0
15 -7 20 -25 20 -18 0 -25 5 -25 20 0 14 -7 20 -21 20 -16 0 -20 5 -17 28 2
19 9 27 23 27 13 0 21 8 23 23 2 14 10 22 23 22 30 0 22 44 -8 48 -15 2 -23
10 -23 23 0 18 -9 19 -155 19 -148 0 -155 1 -155 20 0 15 9 21 40 26 30 5 40
11 40 25 0 14 7 19 25 19 23 0 25 4 25 45 0 38 -3 45 -20 45 -15 0 -20 7 -20
25 0 14 -3 25 -7 25 -5 1 -24 2 -43 4 -19 2 -47 1 -62 -1z m102 -68 c0 -8 -9
-15 -20 -15 -20 0 -26 11 -13 23 12 13 33 7 33 -8z m-322 -247 c-3 -39 -6 -42
-43 -52 -38 -11 -40 -14 -40 -51 0 -30 4 -40 18 -43 12 -2 20 3 24 16 5 20 30
32 69 32 13 0 24 8 26 18 3 10 14 20 24 21 42 4 329 0 334 -5 3 -3 5 -11 5
-17 0 -6 11 -14 25 -17 25 -6 25 -8 22 -92 l-3 -86 31 -7 c21 -5 30 -13 30
-26 0 -16 7 -19 40 -19 36 0 40 -2 40 -25 0 -18 5 -25 20 -25 13 0 20 -7 20
-20 0 -13 10 -24 24 -30 18 -6 27 -20 31 -44 5 -22 14 -36 26 -39 15 -4 19
-14 19 -51 0 -39 3 -46 19 -46 16 0 21 -9 27 -45 5 -35 10 -45 25 -45 16 0 19
-8 19 -50 0 -45 2 -50 23 -51 12 0 16 -3 10 -6 -10 -3 -9 -8 2 -20 8 -8 15
-24 15 -35 0 -11 8 -22 20 -25 14 -4 21 -17 26 -49 4 -28 11 -44 20 -44 22 0
16 -37 -6 -43 -15 -4 -20 -14 -20 -40 0 -62 11 -97 31 -97 13 0 20 -10 25 -35
6 -36 18 -45 27 -22 4 7 6 6 6 -4 1 -9 -8 -19 -19 -22 -13 -3 -20 -13 -20 -29
0 -39 12 -68 26 -68 8 0 19 -11 24 -25 5 -14 15 -24 22 -23 8 2 14 -9 16 -24
2 -19 9 -28 22 -28 14 0 20 -10 25 -40 5 -30 11 -40 26 -40 12 0 21 -9 25 -25
4 -15 13 -25 24 -25 13 0 20 -9 22 -27 2 -20 8 -27 20 -25 11 2 18 -5 20 -20
2 -15 11 -24 25 -26 18 -3 22 -11 25 -45 2 -31 8 -42 23 -47 34 -9 29 -124 -6
-133 -25 -7 -26 -47 0 -47 20 0 31 -34 31 -101 0 -31 4 -39 19 -39 14 0 20
-10 24 -42 7 -49 3 -58 -24 -58 -14 0 -19 -5 -17 -17 2 -10 11 -17 21 -17 12
1 17 -6 17 -22 0 -18 -6 -24 -21 -24 -12 0 -23 -8 -26 -19 -5 -20 -30 -31 -70
-31 -16 0 -23 -6 -23 -19 0 -15 -10 -21 -40 -26 -30 -5 -40 -11 -40 -26 0 -14
-7 -19 -26 -19 -17 0 -28 -6 -31 -20 -4 -14 -17 -22 -44 -26 -29 -5 -39 -11
-39 -25 0 -12 -7 -19 -20 -19 -13 0 -24 -10 -30 -25 -8 -21 -16 -25 -50 -25
-32 0 -40 -4 -40 -19 0 -21 -40 -31 -128 -31 -45 0 -55 -3 -59 -20 -3 -11 -14
-20 -24 -20 -12 0 -19 7 -19 20 0 18 -7 20 -70 20 -62 0 -70 -2 -70 -19 0 -23
-52 -33 -127 -25 -30 3 -54 1 -57 -5 -4 -6 -13 -8 -21 -4 -9 3 -15 -1 -15 -10
0 -11 -24 -16 -118 -21 -65 -4 -151 -4 -190 0 -61 6 -72 9 -72 25 0 11 5 20
10 20 6 1 16 2 22 3 7 0 14 9 16 19 5 25 -38 23 -45 -3 -4 -16 -14 -20 -50
-20 -36 0 -46 -4 -50 -20 -4 -15 -13 -20 -37 -19 -17 0 -25 3 -18 6 6 2 12 9
12 14 0 6 -4 7 -10 4 -5 -3 -10 -1 -10 4 0 6 5 11 10 11 6 0 10 9 10 20 0 15
-7 20 -25 20 -19 0 -25 -5 -23 -17 2 -12 -4 -19 -19 -21 -13 -2 -23 1 -23 7 0
6 5 11 11 11 6 0 4 7 -5 15 -8 8 -23 15 -33 15 -21 0 -56 -20 -35 -20 6 0 12
-7 12 -15 0 -8 -7 -15 -15 -15 -8 0 -15 9 -15 19 0 14 -8 21 -27 23 -19 2 -29
10 -31 23 -3 20 4 20 389 22 382 3 391 2 396 -17 4 -16 14 -20 49 -20 37 0 44
3 44 20 0 13 -7 20 -20 20 -13 0 -20 7 -20 19 0 16 11 19 87 24 67 4 88 9 96
22 8 14 11 15 18 4 7 -11 9 -10 9 4 0 14 9 17 55 17 47 0 55 3 55 19 0 15 10
20 49 26 27 4 75 7 108 6 83 0 111 7 109 27 -1 11 8 18 22 20 14 2 22 10 22
23 0 13 7 19 24 19 18 0 25 6 28 23 2 14 11 23 26 25 14 2 22 10 22 23 0 14 7
19 25 19 18 0 25 5 25 19 0 27 30 36 37 11 3 -11 14 -20 24 -20 16 0 19 7 19
37 0 21 1 61 3 88 2 45 0 50 -20 53 -22 3 -23 7 -23 117 0 99 -2 113 -17 111
-20 -1 -31 31 -32 99 -2 59 -6 67 -46 85 -29 12 -55 49 -55 77 0 7 -7 13 -15
13 -9 0 -15 9 -15 25 0 23 -4 25 -45 25 -38 0 -45 3 -45 20 0 11 -7 21 -15 21
-8 1 -19 3 -25 4 -5 1 -39 3 -74 4 -55 1 -64 4 -69 21 -3 12 -14 20 -27 20
-13 0 -24 8 -27 19 -6 24 -41 31 -162 31 -90 0 -151 13 -151 33 0 4 -22 7 -50
7 -27 0 -50 -4 -50 -10 0 -5 -9 -10 -19 -10 -11 0 -23 -5 -27 -11 -5 -8 -39
-10 -118 -5 -61 4 -119 7 -129 7 -10 0 -21 7 -24 15 -8 22 -132 20 -148 -3
-10 -13 -40 -18 -146 -26 -74 -5 -136 -13 -138 -19 -2 -6 -7 -5 -12 3 -7 11
-9 11 -9 -2 0 -23 -21 -29 -100 -29 -76 0 -100 -6 -100 -25 0 -9 -25 -15 -85
-20 -74 -6 -85 -10 -85 -26 0 -16 -8 -19 -47 -19 -65 0 -90 -8 -96 -31 -4 -15
-14 -19 -51 -19 -42 0 -46 -2 -46 -25 0 -18 -5 -25 -19 -25 -15 0 -21 -10 -26
-40 -5 -30 -11 -40 -26 -40 -14 0 -19 -7 -19 -25 0 -18 5 -25 20 -25 17 0 20
-7 20 -45 0 -31 -5 -47 -17 -54 -17 -10 -16 -10 2 -11 18 -1 18 -2 -2 -10 -20
-8 -23 -17 -23 -60 0 -43 3 -50 20 -50 13 0 20 -7 20 -19 0 -13 8 -21 23 -23
19 -3 22 -10 25 -50 3 -40 6 -48 23 -48 14 0 19 -7 19 -26 0 -17 6 -28 18 -31
11 -2 25 -20 32 -39 15 -38 35 -44 43 -14 3 12 14 20 26 20 19 0 21 -6 21 -50
0 -34 -4 -49 -12 -48 -7 2 -14 -7 -16 -19 -3 -20 1 -23 32 -23 28 0 35 -4 38
-22 2 -14 12 -24 28 -28 16 -4 26 -14 28 -28 4 -24 14 -27 43 -11 24 13 49 -4
49 -32 0 -17 8 -19 65 -19 61 0 66 -2 75 -25 8 -21 16 -25 50 -25 33 0 40 -3
40 -20 0 -19 -7 -20 -114 -20 -111 0 -115 -1 -118 -23 -4 -31 -48 -38 -48 -7
0 13 -8 24 -20 27 -11 3 -20 14 -20 24 0 12 -10 23 -25 29 -14 5 -25 16 -25
25 0 8 -9 15 -19 15 -13 0 -21 8 -23 22 -2 16 -12 24 -32 28 -16 3 -32 14 -37
25 -8 19 -8 19 -15 -2 -7 -24 -21 -27 -73 -17 -28 6 -31 10 -31 45 0 32 -3 39
-20 39 -15 0 -20 7 -20 25 0 20 -5 25 -25 25 -20 0 -25 5 -25 25 0 15 -11 36
-25 49 -14 13 -25 32 -25 43 0 12 -8 23 -20 26 -17 4 -20 14 -20 60 0 72 -10
117 -25 117 -7 0 -15 14 -19 32 -8 41 3 98 19 98 7 0 15 18 19 40 3 22 12 40
19 40 9 0 9 2 0 8 -13 8 -16 23 -14 70 1 24 5 32 20 32 15 0 20 10 25 45 5 29
12 45 21 45 10 0 17 17 21 50 5 39 11 50 24 50 13 0 20 11 25 40 5 30 11 40
26 40 14 0 19 7 19 25 0 18 5 25 19 25 16 0 21 9 27 45 5 36 10 45 26 45 17 0
19 6 16 48 l-3 47 -42 3 -43 3 0 45 c0 40 2 44 25 44 19 0 25 5 25 21 0 12 8
23 20 26 11 3 20 11 20 18 0 8 10 15 23 17 31 4 31 52 0 56 -18 3 -23 -2 -23
-17 0 -16 -10 -24 -45 -33 -32 -9 -45 -17 -45 -30 0 -13 -8 -18 -25 -18 -18 0
-25 -5 -25 -20 0 -13 -7 -20 -20 -20 -13 0 -20 7 -20 20 0 13 7 20 20 20 13 0
20 7 20 20 0 13 10 24 25 30 18 7 25 17 25 35 0 14 3 24 8 24 20 -3 32 2 32
16 0 11 12 15 50 15 43 0 50 3 50 20 0 13 7 20 20 20 11 0 21 6 22 13 0 6 2
17 3 22 2 6 3 31 4 58 1 35 5 47 16 47 8 0 15 -9 15 -20 0 -16 7 -20 30 -20
29 0 30 2 30 44 0 35 4 45 20 49 16 4 20 14 20 45 0 34 3 41 23 44 16 2 23 11
25 31 2 18 9 27 22 27 12 0 20 10 24 35 8 42 2 55 -25 55 -16 0 -19 7 -19 40
0 33 3 40 19 40 14 0 21 8 23 27 3 27 13 30 78 24 6 -1 15 -12 20 -26 10 -27
35 -25 43 4 3 12 18 20 47 25 32 5 41 10 36 22 -4 10 3 16 24 21 21 4 30 11
30 24 0 14 7 19 25 19 18 0 25 5 25 20 0 16 9 21 50 26 27 4 48 10 45 14 -6 9
40 30 66 30 12 0 23 8 26 20 4 14 17 22 46 27 26 4 41 12 44 24 5 17 23 24 66
28 16 1 18 -5 15 -41z m-377 23 c7 11 9 10 9 -5 0 -12 -5 -16 -16 -12 -9 3
-18 6 -20 6 -3 0 -2 5 2 12 6 9 9 9 12 -1 4 -11 6 -11 13 0z m-31 -51 c0 -15
-7 -20 -24 -20 -18 0 -25 -6 -28 -22 -2 -19 -9 -23 -37 -23 -39 0 -53 20 -21
28 12 3 24 15 27 26 3 12 11 17 19 14 8 -3 14 0 14 6 0 6 11 11 25 11 18 0 25
-5 25 -20z m-190 -145 c0 -8 -6 -15 -14 -15 -17 0 -28 14 -19 24 12 12 33 6
33 -9z m-362 -547 c-2 -15 -10 -23 -23 -23 -13 0 -21 -8 -23 -22 -3 -20 -9
-23 -48 -23 -36 0 -44 3 -44 19 0 13 11 20 43 27 23 5 43 15 43 22 2 21 3 22
30 22 21 0 25 -4 22 -22z m-138 -93 c0 -8 -9 -15 -20 -15 -11 0 -20 7 -20 15
0 8 9 15 20 15 11 0 20 -7 20 -15z m-50 -50 c0 -2 -7 -5 -15 -9 -9 -3 -15 0
-15 9 0 9 6 12 15 9 8 -4 15 -7 15 -9z m0 -366 c0 -12 -7 -19 -20 -19 -22 0
-29 35 -7 43 18 6 27 -2 27 -24z m-420 -51 c0 -13 -5 -30 -10 -38 -7 -12 -9
-11 -8 5 0 11 -3 28 -7 38 -5 12 -3 17 9 17 10 0 16 -8 16 -22z m-27 -39 c-4
-12 -14 -24 -25 -27 -12 -3 -20 -17 -24 -43 -7 -39 -31 -59 -46 -37 -4 7 -6
22 -3 33 2 11 5 25 5 31 0 7 9 14 20 17 12 3 20 14 20 26 0 17 6 21 29 21 25
0 28 -3 24 -21z m2887 -88 c0 -12 9 -20 28 -24 20 -4 28 -12 28 -26 0 -16 -7
-21 -28 -21 -23 0 -28 4 -28 25 0 18 -5 25 -20 25 -22 0 -28 25 -7 33 22 9 27
7 27 -12z m-2990 -136 c0 -18 -5 -25 -20 -25 -20 0 -28 28 -13 43 15 16 33 6
33 -18z m2662 -57 c2 -15 11 -24 24 -26 25 -4 39 -53 28 -96 -12 -51 -43 -21
-44 42 0 15 -6 22 -20 22 -17 0 -20 7 -20 40 0 44 26 58 32 18z m368 7 c0 -8
-7 -15 -15 -15 -8 0 -15 7 -15 15 0 8 7 15 15 15 8 0 15 -7 15 -15z m-265
-211 c5 -35 10 -44 26 -44 17 0 19 -7 19 -70 0 -63 2 -70 20 -70 17 0 20 -7
20 -45 0 -38 -3 -45 -20 -45 -13 0 -20 -7 -20 -19 0 -13 -10 -20 -31 -25 -53
-10 -69 -7 -69 13 0 10 -9 21 -20 24 -13 3 -20 13 -20 29 0 38 11 68 25 68 17
0 25 47 25 150 0 82 1 88 19 83 14 -3 21 -17 26 -49z m-2439 38 c-3 -5 -6 -25
-8 -44 -1 -29 -5 -34 -21 -30 -13 3 -15 7 -7 12 9 5 9 9 1 14 -6 4 -11 18 -11
32 0 19 5 24 26 24 14 0 23 -4 20 -8z m-146 -10 c0 -5 -7 -9 -15 -9 -8 0 -15
4 -15 9 0 4 7 8 15 8 8 0 15 -4 15 -8z m3006 -37 c24 -12 26 -15 9 -16 l-20 0
20 -9 c15 -7 10 -9 -24 -9 -35 -1 -42 2 -37 15 3 9 6 20 6 25 0 13 13 11 46
-6z m-2911 -79 c3 -23 6 -63 8 -91 1 -37 6 -50 17 -50 12 0 16 -21 21 -105 4
-58 7 -108 8 -112 0 -5 10 -8 21 -8 14 0 20 -7 20 -22 0 -38 12 -68 26 -68 7
0 14 -12 16 -27 2 -20 9 -29 26 -31 14 -2 22 -10 22 -23 0 -14 7 -19 25 -19
21 0 25 -5 25 -31 0 -24 4 -30 15 -25 8 3 15 1 15 -4 0 -6 -6 -10 -12 -11 -7
0 -3 -4 10 -9 12 -5 22 -18 22 -28 0 -21 34 -32 96 -32 27 0 34 -4 34 -20 0
-15 7 -20 24 -20 15 0 27 -7 31 -19 6 -21 33 -31 88 -31 30 0 40 -4 44 -20 4
-17 14 -20 57 -20 88 0 126 -10 126 -32 0 -11 9 -22 20 -25 11 -3 20 -14 20
-24 0 -16 8 -19 44 -19 39 0 45 -3 48 -22 3 -20 10 -23 49 -26 37 -2 48 -7 52
-23 4 -15 14 -19 45 -19 39 0 40 0 46 -45 7 -41 25 -63 27 -32 0 9 2 10 6 0 2
-7 16 -13 29 -13 15 0 24 -6 24 -15 0 -8 0 -18 0 -22 0 -5 -10 -7 -23 -7 -12
1 -32 2 -44 3 -16 1 -23 7 -23 21 0 15 -7 20 -25 20 -18 0 -25 5 -25 19 0 24
-35 31 -166 31 l-104 0 0 -25 c0 -23 -3 -25 -50 -25 -47 0 -55 -5 -51 -32 0
-5 -6 -8 -14 -8 -8 0 -15 9 -15 20 0 15 -7 20 -25 20 -20 0 -25 5 -25 25 0 16
6 25 15 25 8 0 15 8 15 18 0 11 -9 18 -28 19 -41 4 -74 -6 -66 -19 4 -7 3 -8
-4 -4 -6 4 -20 1 -31 -6 -15 -9 -23 -10 -32 -1 -15 15 -3 33 22 33 12 0 19 7
19 19 0 10 9 21 20 24 11 3 20 14 20 25 0 23 -33 32 -125 32 -55 0 -63 3 -68
20 -3 11 -9 20 -14 18 -4 -1 -32 2 -60 6 -43 6 -53 12 -53 27 0 14 -7 19 -25
19 -22 0 -25 4 -26 38 -1 34 -16 99 -18 78 -1 -5 -7 -4 -14 3 -8 6 -36 13 -63
16 -27 3 -54 6 -61 7 -7 1 -15 22 -18 47 -4 25 -7 53 -8 61 -1 8 -12 16 -25
18 -17 3 -22 -2 -22 -17 0 -14 -6 -21 -20 -21 -15 0 -20 7 -20 26 0 16 4 23
11 18 6 -3 15 0 20 7 13 21 11 29 -10 29 -14 0 -20 10 -25 44 -5 32 -12 45
-26 49 -13 3 -20 14 -20 30 0 16 -7 26 -19 30 -14 3 -19 17 -23 55 -4 38 -11
56 -28 70 -22 17 -24 54 -3 51 4 -1 23 -1 41 0 33 1 33 1 30 49 -3 45 -2 47
25 50 21 3 27 -1 27 -17 0 -25 20 -38 31 -20 5 8 9 29 9 47 0 25 -4 32 -20 32
-17 0 -20 7 -20 44 l0 44 40 -1 c38 -1 40 -2 45 -41z m-365 -116 c0 -15 -7
-20 -25 -20 -18 0 -25 5 -25 20 0 15 7 20 25 20 18 0 25 -5 25 -20z m-63 4
c-3 -3 -12 -4 -19 -1 -8 3 -5 6 6 6 11 1 17 -2 13 -5z m3067 -135 c-3 -6 0
-15 7 -20 7 -4 10 -11 6 -15 -11 -12 -30 13 -24 30 4 9 9 16 12 16 4 0 3 -5
-1 -11z m-300 -54 c3 -9 0 -15 -8 -15 -7 0 -13 7 -13 15 0 8 4 15 8 15 4 0 9
-7 13 -15z m-1657 -181 c-3 -3 -12 -4 -19 -1 -8 3 -5 6 6 6 11 1 17 -2 13 -5z
m-37 -226 c0 -5 0 -12 0 -18 0 -5 -9 -10 -19 -10 -13 0 -19 6 -18 19 1 17 37
26 37 9z m-497 -49 c3 -12 0 -22 -9 -26 -22 -8 -44 5 -44 27 0 28 46 28 53 -1z
m1831 -78 c14 -22 -7 -41 -45 -41 -32 0 -39 4 -39 19 0 12 8 21 23 24 40 8 56
7 61 -2z m170 -17 c4 -10 1 -14 -6 -12 -15 5 -23 28 -10 28 5 0 13 -7 16 -16z
m-264 -101 c0 -14 -3 -23 -7 -20 -3 4 -12 2 -20 -4 -10 -9 -13 -5 -13 20 0 24
4 31 20 31 15 0 20 -7 20 -27z m-47 -77 c7 -16 -1 -26 -20 -26 -7 0 -13 9 -13
20 0 23 25 27 33 6z m97 -141 c0 -23 -4 -25 -45 -25 -38 0 -45 3 -45 19 0 14
8 21 28 24 59 9 62 8 62 -18z m645 -26 c8 -35 0 -49 -26 -49 -16 0 -19 -7 -19
-49 0 -33 4 -49 13 -48 51 2 77 -4 77 -18 0 -8 -9 -15 -20 -15 -14 0 -20 -7
-20 -24 0 -20 -6 -24 -42 -30 -23 -4 -45 -3 -49 1 -4 4 -10 59 -12 121 -5 115
-4 117 37 112 12 -1 16 3 11 10 -9 14 13 30 31 23 7 -2 16 -18 19 -34z m-1297
-47 c3 -37 6 -42 27 -42 17 0 25 -6 27 -22 2 -15 11 -24 26 -26 13 -2 22 -10
22 -21 0 -12 10 -20 29 -24 24 -5 28 -10 24 -27 -4 -17 -12 -20 -37 -18 -23 2
-30 7 -28 21 2 11 -3 17 -15 17 -15 0 -16 -2 -3 -10 11 -7 8 -11 -15 -20 -42
-16 -55 -7 -55 40 0 33 -3 40 -19 40 -17 0 -18 -7 -16 -72 1 -40 3 -81 4 -90
1 -12 12 -18 44 -20 34 -2 42 -7 42 -23 0 -15 -8 -21 -32 -23 -28 -3 -33 0
-34 20 -1 23 -1 23 -8 -2 -5 -17 -9 -21 -15 -12 -4 6 -4 17 -1 22 4 6 -5 10
-19 10 -22 0 -26 5 -26 29 0 29 -22 61 -41 61 -5 0 -9 11 -9 24 0 17 -7 26
-25 30 -16 4 -25 13 -25 26 0 13 -7 20 -19 20 -13 0 -21 8 -23 23 -2 17 -11
23 -43 27 -22 3 -47 3 -55 -1 -8 -4 -30 -4 -47 -2 -24 4 -33 11 -33 24 0 12 7
19 20 19 13 0 20 7 20 20 0 28 38 27 42 -2 2 -12 8 -23 14 -25 15 -5 46 26 39
38 -4 5 14 9 38 9 36 0 46 -4 50 -20 4 -16 14 -20 51 -20 39 0 46 -3 46 -20 0
-13 7 -20 20 -20 17 0 20 7 20 38 0 68 33 71 38 4z m372 23 c0 -19 -5 -24 -20
-22 -11 2 -22 6 -26 10 -12 12 5 37 26 37 15 0 20 -7 20 -25z m188 -2 c3 -19
-1 -23 -22 -23 -19 0 -26 -5 -26 -20 0 -13 -7 -20 -19 -20 -13 0 -21 -8 -23
-22 -2 -15 -10 -23 -23 -23 -29 0 -27 39 3 43 18 3 22 10 22 42 0 32 4 39 23
43 43 9 62 3 65 -20z m85 -139 c-3 -9 -20 -14 -44 -14 -31 0 -39 4 -39 18 0
28 7 31 50 20 27 -7 37 -14 33 -24z m-1375 -21 l3 -43 -45 0 c-49 0 -53 7 -40
57 6 23 25 32 59 30 16 -2 21 -10 23 -44z m2162 27 c0 -13 -7 -20 -20 -20 -13
0 -20 7 -20 20 0 13 7 20 20 20 13 0 20 -7 20 -20z m-1656 -38 c3 -5 3 -25 -1
-45 -5 -31 -10 -37 -30 -37 -20 0 -24 -4 -20 -20 4 -15 0 -20 -14 -20 -16 0
-19 7 -19 40 0 33 3 40 20 40 15 0 20 7 20 25 0 18 5 25 19 25 11 0 22 -4 25
-8z m736 -102 l0 -110 -85 0 c-66 0 -85 3 -85 14 0 7 9 16 20 19 12 3 20 14
20 25 0 16 9 22 40 27 30 5 40 11 40 26 0 12 -7 19 -20 19 -15 0 -20 7 -20 25
0 20 5 25 25 25 18 0 25 5 25 20 0 13 7 20 20 20 19 0 20 -7 20 -110z m640 90
c0 -21 -16 -25 -57 -14 -40 11 -28 34 17 34 33 0 40 -3 40 -20z m-2060 -89 c0
-16 8 -20 43 -23 35 -2 43 -7 45 -25 3 -20 9 -23 48 -23 37 0 44 -3 44 -20 0
-19 -7 -20 -95 -20 -87 0 -95 2 -95 19 0 13 -8 21 -22 23 -16 2 -22 9 -20 23
2 19 2 19 -11 3 -18 -23 -27 -13 -27 29 0 33 1 33 45 33 38 0 45 -3 45 -19z
m904 4 c3 -8 1 -15 -4 -15 -6 0 -10 7 -10 15 0 8 2 15 4 15 2 0 6 -7 10 -15z
m644 -53 c2 -7 -3 -12 -12 -12 -9 0 -16 7 -16 16 0 17 22 14 28 -4z m427 -47
c0 -13 -8 -21 -22 -23 -19 -3 -23 1 -23 23 0 22 4 26 23 23 14 -2 22 -10 22
-23z m-1155 -85 c0 -17 -7 -20 -40 -20 -44 0 -58 25 -17 33 48 9 57 7 57 -13z
m1698 -48 c-5 -23 -28 -27 -28 -4 0 10 7 19 15 19 9 0 15 -7 13 -15z m-2298
-48 c0 -9 -7 -14 -17 -12 -25 5 -28 28 -4 28 12 0 21 -6 21 -16z m1710 -4 c0
-18 -5 -20 -45 -18 -35 2 -45 7 -45 21 0 14 9 17 45 17 39 0 45 -3 45 -20z
m-1760 -40 c0 -11 -7 -20 -15 -20 -8 0 -15 9 -15 20 0 11 7 20 15 20 8 0 15
-9 15 -20z m-40 -50 c0 -13 -7 -20 -20 -20 -13 0 -20 7 -20 20 0 13 7 20 20
20 13 0 20 -7 20 -20z m1650 -13 c0 -20 -1 -20 -16 -5 -9 9 -13 21 -9 27 10
16 25 3 25 -22z m-1703 -44 c-3 -2 -13 -3 -23 -1 -16 3 -16 4 2 22 18 18 19
18 22 2 2 -10 1 -20 -1 -23z m2761 -36 c2 -10 -3 -17 -12 -17 -10 0 -16 9 -16
21 0 24 23 21 28 -4z m-942 -14 c-10 -10 -19 5 -10 18 6 11 8 11 12 0 2 -7 1
-15 -2 -18z m-106 -33 c0 -13 -7 -20 -20 -20 -13 0 -20 7 -20 20 0 13 7 20 20
20 13 0 20 -7 20 -20z m-1670 0 c0 -5 -5 -10 -11 -10 -5 0 -7 5 -4 10 3 6 8
10 11 10 2 0 4 -4 4 -10z m1618 -43 c2 -12 -3 -17 -17 -17 -12 0 -21 6 -21 13
0 31 32 34 38 4z m176 10 c3 3 6 -1 6 -10 0 -13 -10 -17 -45 -17 -32 0 -45 4
-45 14 0 17 38 26 61 14 9 -4 19 -4 23 -1z m1106 -7 c0 -13 -7 -20 -20 -20
-11 0 -20 5 -20 10 0 6 -5 10 -11 10 -5 0 -7 -5 -3 -12 4 -7 3 -8 -4 -4 -20
12 -13 26 12 26 13 0 27 -6 29 -12 3 -8 6 -6 6 5 1 24 11 22 11 -3z m190 -51
c0 -25 -33 -22 -38 4 -2 12 3 17 17 17 15 0 21 -6 21 -21z"/>
<path d="M2030 4023 c0 -7 6 -13 14 -13 8 0 16 6 19 13 3 8 -3 13 -14 13 -11
0 -19 -6 -19 -13z"/>
<path d="M2076 3985 c-7 -19 12 -28 51 -23 17 2 29 10 31 21 3 14 -4 17 -36
17 -27 0 -42 -5 -46 -15z"/>
<path d="M2533 3796 c1 -6 -14 -12 -33 -14 -109 -8 -159 -32 -160 -74 0 -11
-8 -18 -20 -18 -16 0 -20 -7 -20 -30 0 -23 -5 -30 -19 -30 -23 0 -31 -35 -31
-143 0 -72 2 -82 25 -103 14 -13 25 -32 25 -43 0 -16 11 -21 70 -32 46 -8 70
-17 70 -26 0 -21 37 -15 43 7 4 17 14 20 70 20 56 0 65 3 70 20 3 14 17 21 45
26 38 6 40 8 47 50 5 35 10 44 26 44 14 0 19 7 19 25 0 18 5 25 20 25 13 0 20
7 20 20 0 13 -7 20 -20 20 -18 0 -20 7 -20 60 0 55 -2 61 -25 70 -15 6 -25 17
-25 30 0 11 -3 19 -7 19 -5 -1 -23 2 -40 6 -23 5 -33 13 -33 26 0 14 -7 19
-25 19 -15 0 -29 7 -33 18 -8 19 -42 27 -39 8z m18 -76 c16 0 19 -7 19 -40 0
-32 -4 -40 -19 -40 -13 0 -20 -9 -24 -30 -4 -18 -13 -30 -22 -30 -11 0 -15
-11 -15 -39 0 -30 4 -40 20 -44 12 -3 20 -14 20 -26 0 -16 6 -21 26 -21 25 0
26 -2 19 -37 -4 -21 -9 -41 -11 -45 -3 -5 -32 -8 -66 -8 -51 0 -61 3 -65 19
-3 13 -17 22 -43 26 -37 6 -39 9 -45 49 -4 23 -4 64 -2 92 3 27 6 57 6 67 1
10 9 17 20 17 13 0 21 8 23 23 2 14 11 23 24 25 12 2 24 12 27 22 5 18 46 31
75 23 8 -1 22 -3 33 -3z"/>
<path d="M1790 3751 c0 -18 -8 -20 -67 -23 -62 -3 -68 -5 -71 -25 -3 -17 -10
-23 -30 -23 -32 0 -46 -9 -55 -32 -3 -10 -16 -18 -27 -18 -17 0 -20 -6 -20
-45 0 -41 -2 -45 -25 -45 -25 0 -26 -2 -24 -59 2 -65 6 -74 32 -84 14 -5 17
-19 17 -72 l0 -65 45 0 c25 0 44 -3 44 -7 -5 -30 4 -33 92 -33 82 0 91 2 96
20 5 18 39 27 76 21 5 -1 11 8 14 19 3 11 14 20 24 20 11 0 21 9 25 24 3 13
14 26 25 29 11 3 19 14 19 27 0 13 8 24 20 27 18 5 20 14 20 114 0 102 -1 109
-20 109 -15 0 -20 7 -20 25 0 20 -5 25 -25 25 -18 0 -25 5 -25 20 0 13 -7 20
-19 20 -13 0 -21 8 -23 23 -3 19 -10 22 -50 25 -42 3 -48 1 -48 -17z m48 -113
c-2 -36 -7 -44 -25 -46 -15 -2 -23 -10 -23 -23 0 -12 -7 -19 -20 -19 -19 0
-20 -7 -20 -115 l0 -115 -25 0 c-15 0 -25 6 -25 14 0 10 -16 17 -45 22 l-45 6
0 108 c0 105 1 109 23 112 14 2 23 11 25 25 3 18 12 23 48 29 26 4 44 12 44
19 0 12 22 19 73 24 15 1 18 -6 15 -41z"/>
<path d="M2067 3314 c-4 -4 -7 -17 -8 -28 0 -19 -1 -19 -12 4 l-11 25 -4 -27
c-2 -19 -9 -28 -22 -28 -10 0 -22 -4 -25 -10 -3 -5 -1 -10 5 -10 7 0 5 -6 -4
-15 -12 -12 -14 -30 -9 -80 l6 -65 -72 0 c-64 0 -71 -2 -71 -20 0 -16 -7 -20
-32 -20 -69 0 -108 -12 -108 -31 0 -15 -8 -19 -37 -21 -21 -1 -47 -2 -58 -3
-11 -1 -44 -3 -72 -4 -40 -1 -53 -5 -53 -16 0 -13 22 -15 136 -15 114 0 135 2
131 14 -4 10 5 16 33 21 43 7 60 1 60 -21 0 -23 88 -19 110 6 16 19 34 20 266
25 354 8 348 8 352 27 2 9 -2 19 -7 23 -6 3 -11 11 -11 17 0 5 8 0 18 -12 16
-20 23 -22 58 -14 23 6 39 16 39 24 0 12 -18 15 -84 16 -87 2 -108 12 -91 44
6 11 20 16 44 15 29 -2 36 1 36 17 0 15 -7 19 -37 17 -21 -1 -49 3 -63 9 -18
8 -20 11 -7 11 36 2 15 20 -30 26 -107 14 -123 17 -123 26 0 6 5 7 12 3 7 -5
8 -3 3 5 -4 7 -15 11 -25 8 -25 -6 -50 11 -50 33 0 18 -7 20 -59 20 -32 0 -71
3 -87 6 -16 3 -32 2 -37 -2z m-167 -290 c0 -3 -6 -12 -14 -20 -21 -21 -46 -17
-46 6 0 16 7 20 30 20 17 0 30 -3 30 -6z m505 -4 c-3 -5 -13 -10 -21 -10 -8 0
-14 5 -14 10 0 6 9 10 21 10 11 0 17 -4 14 -10z"/>
<path d="M2688 3018 c18 -18 119 -21 119 -4 0 10 -19 14 -66 15 -52 1 -63 -1
-53 -11z"/>
<path d="M2946 2965 c4 -8 12 -15 19 -15 7 0 15 7 19 15 4 11 -1 15 -19 15
-18 0 -23 -4 -19 -15z"/>
<path d="M1390 2920 c0 -5 7 -10 15 -10 8 0 15 5 15 10 0 6 -7 10 -15 10 -8 0
-15 -4 -15 -10z"/>
<path d="M1150 1865 c0 -18 21 -20 39 -2 9 8 12 8 7 0 -10 -19 12 -63 31 -62
11 0 13 3 5 6 -8 3 -11 17 -7 41 4 30 4 33 -4 15 -13 -28 -25 -30 -16 -3 7 23
-13 27 -34 8 -11 -10 -13 -10 -7 0 4 6 2 12 -3 12 -6 0 -11 -7 -11 -15z"/>
<path d="M888 1683 c7 -3 16 -2 19 1 4 3 -2 6 -13 5 -11 0 -14 -3 -6 -6z"/>
<path d="M865 1630 c-20 -38 -19 -41 8 -31 12 5 27 8 32 7 6 0 11 11 13 27 5
39 -32 37 -53 -3z"/>
<path d="M1858 4353 c7 -3 16 -2 19 1 4 3 -2 6 -13 5 -11 0 -14 -3 -6 -6z"/>
<path d="M1858 4333 c7 -3 16 -2 19 1 4 3 -2 6 -13 5 -11 0 -14 -3 -6 -6z"/>
<path d="M2857 4123 c-14 -13 -6 -23 17 -23 13 0 26 7 30 15 4 11 -1 15 -18
15 -12 0 -26 -3 -29 -7z"/>
<path d="M3508 3363 c6 -2 18 -2 25 0 6 3 1 5 -13 5 -14 0 -19 -2 -12 -5z"/>
<path d="M3508 3343 c6 -2 10 -9 6 -14 -3 -5 -1 -9 4 -9 6 0 12 7 16 15 4 11
-1 15 -17 14 -12 0 -16 -3 -9 -6z"/>
<path d="M4000 2690 c0 -15 7 -20 25 -20 18 0 25 5 25 20 0 15 -7 20 -25 20
-18 0 -25 -5 -25 -20z"/>
<path d="M4053 2654 c-8 -21 13 -42 28 -27 13 13 5 43 -11 43 -6 0 -13 -7 -17
-16z"/>
<path d="M4140 2549 c0 -12 8 -23 19 -26 11 -3 21 -13 24 -24 7 -26 47 -26 47
0 0 13 -8 21 -22 23 -15 2 -24 11 -26 26 -4 29 -42 31 -42 1z"/>
<path d="M4230 2266 c0 -18 -7 -39 -16 -46 -12 -11 -15 -11 -12 1 2 8 7 17 12
21 5 3 -3 5 -17 5 -25 -2 -40 -17 -17 -17 6 0 10 -4 10 -8 0 -5 -10 -8 -22 -8
-17 1 -24 -5 -26 -21 -2 -15 -10 -23 -23 -23 -14 0 -19 -7 -19 -25 0 -33 37
-35 42 -2 2 12 10 22 18 23 8 1 27 2 41 2 17 1 28 9 32 22 3 12 14 20 26 20
18 0 21 6 21 45 0 41 -2 45 -25 45 -22 0 -25 -4 -25 -34z"/>
<path d="M4050 2095 c0 -8 9 -15 20 -15 11 0 20 7 20 15 0 8 -9 15 -20 15 -11
0 -20 -7 -20 -15z"/>
<path d="M3776 2061 c-10 -16 5 -42 23 -39 21 4 21 42 -1 46 -9 2 -19 -1 -22
-7z"/>
<path d="M3920 1955 c0 -8 7 -15 15 -15 8 0 15 7 15 15 0 8 -7 15 -15 15 -8 0
-15 -7 -15 -15z"/>
<path d="M280 1867 c0 -68 4 -79 26 -70 16 6 20 93 5 93 -5 0 -7 9 -4 20 4 14
0 20 -11 20 -13 0 -16 -12 -16 -63z"/>
<path d="M3821 1843 c-1 -36 2 -43 18 -43 14 0 17 6 13 25 -2 14 -8 23 -12 20
-5 -3 -11 5 -13 17 -2 13 -5 4 -6 -19z"/>
<path d="M3500 1533 c0 -16 -3 -45 -6 -65 -6 -36 -5 -38 20 -38 25 0 26 1 26
65 0 58 -2 65 -20 65 -15 0 -20 -7 -20 -27z"/>
<path d="M3360 1269 c0 -15 26 -39 34 -32 14 15 5 43 -14 43 -11 0 -20 -5 -20
-11z"/>
<path d="M3867 963 c-4 -3 -7 -17 -7 -30 0 -16 -6 -23 -20 -23 -11 0 -20 -7
-20 -15 0 -24 76 -20 90 5 6 11 17 20 25 20 8 0 15 8 15 19 0 13 -10 20 -31
25 -39 8 -44 8 -52 -1z"/>
<path d="M3950 895 c0 -14 5 -25 10 -25 6 0 10 -8 11 -17 0 -15 2 -15 9 2 8
19 9 19 9 -2 1 -15 9 -25 25 -29 13 -3 26 -14 29 -25 4 -16 15 -19 76 -19 64
0 71 -2 71 -20 0 -19 7 -20 90 -20 83 0 90 1 90 20 0 17 -7 20 -46 20 -37 0
-47 4 -51 20 -4 14 -17 21 -52 25 -25 4 -53 7 -61 8 -8 2 -14 10 -12 19 2 11
-9 17 -38 22 -23 3 -38 11 -35 16 9 15 -30 30 -79 30 -42 0 -46 -2 -46 -25z"/>
<path d="M2723 480 c-3 -13 -14 -20 -29 -20 -17 0 -24 -6 -24 -19 0 -22 26
-31 88 -31 38 0 42 2 42 24 0 18 -6 25 -22 28 -15 2 -22 9 -22 21 2 24 -27 22
-33 -3z"/>
<path d="M2365 401 c-3 -5 -1 -12 5 -16 5 -3 10 1 10 9 0 18 -6 21 -15 7z"/>
<path d="M2525 390 c-4 -12 -15 -20 -28 -20 -27 0 -42 -10 -50 -32 -5 -14 -18
-18 -57 -18 -30 0 -50 -4 -50 -11 0 -6 -7 -8 -17 -5 -10 4 -14 4 -11 0 10 -9
-17 -34 -36 -34 -29 0 -17 -27 15 -34 38 -7 111 3 103 15 -8 14 42 29 97 29
42 0 49 3 49 20 0 11 3 19 8 19 23 -4 32 4 32 26 0 23 4 25 40 25 33 0 40 3
40 20 0 18 -7 20 -64 20 -56 0 -66 -3 -71 -20z"/>
<path d="M2203 357 c-4 -8 -15 -17 -23 -20 -8 -3 4 -6 28 -6 36 -1 43 2 40 16
-4 22 -34 29 -45 10z"/>
<path d="M2709 348 c8 -21 15 -23 70 -22 67 1 77 5 68 29 -5 11 -23 15 -76 15
-69 0 -70 -1 -62 -22z"/>
<path d="M2070 299 c0 -17 5 -20 35 -17 20 2 35 7 35 11 0 4 0 12 0 17 0 6
-16 10 -35 10 -29 0 -35 -4 -35 -21z"/>
<path d="M2170 204 c0 -17 22 -14 28 4 2 7 -3 12 -12 12 -9 0 -16 -7 -16 -16z"/>
</g>
</svg>
